<svg xmlns="http://www.w3.org/2000/svg" width="102.62" height="18.637"><g data-name="Group 4"><g data-name="Group 3"><g data-name="Group 1" fill="#00f"><path data-name="Path 1" d="M3.055 9.191L11.343.903a3.082 3.082 0 00-4.359 0L.875 7.012a2.989 2.989 0 000 4.226l.066.066 2.675 2.675 2.113-2.113z"/><path data-name="Path 2" d="M9.613 9.446l-8.288 8.288a3.082 3.082 0 004.359 0l6.109-6.109a2.989 2.989 0 000-4.227l-.066-.066-2.675-2.675L6.939 6.77z"/></g><g data-name="Group 2"><path data-name="Path 3" d="M18.987 12.593a1.376 1.376 0 00.171.8.759.759 0 00.638.226 2.81 2.81 0 00.506-.039 2.85 2.85 0 00.521-.163l-.187 1.338a2.867 2.867 0 01-1.291.264 2 2 0 01-1.532-.529 2.391 2.391 0 01-.49-1.664v-9.24h1.664z"/><path data-name="Path 4" d="M28.492 8.004a4.812 4.812 0 010 5.942 4.311 4.311 0 01-5.693 0 4.812 4.812 0 010-5.942 4.311 4.311 0 015.693 0zm-4.472.941a3.912 3.912 0 000 4.06 2.221 2.221 0 003.259-.008 3.84 3.84 0 000-4.045 2.221 2.221 0 00-3.259-.008z"/><path data-name="Path 5" d="M37.919 8.004a4.812 4.812 0 010 5.942 4.312 4.312 0 01-5.693 0 4.812 4.812 0 010-5.942 4.312 4.312 0 015.693 0zm-4.472.941a3.913 3.913 0 000 4.06 2.221 2.221 0 003.259-.008 3.84 3.84 0 000-4.045 2.221 2.221 0 00-3.259-.008z"/><path data-name="Path 6" d="M44.281 11.208l-1.54 1.587v2.069h-1.664V3.586h1.664v7.311l3.718-3.811h1.96l-2.971 3.049 3.158 4.729h-1.929z"/><path data-name="Path 7" d="M50.73 14.616a2.873 2.873 0 01-1.377-1.229l1.12-.964a1.926 1.926 0 00.918.98 3.3 3.3 0 001.493.311 2.438 2.438 0 001.229-.257.767.767 0 00.436-.677.674.674 0 00-.4-.6 5.334 5.334 0 00-1.4-.428 5.915 5.915 0 01-2.427-.871 1.838 1.838 0 01-.7-1.54 2.027 2.027 0 01.389-1.19 2.7 2.7 0 011.128-.887 4.215 4.215 0 011.75-.334 4.294 4.294 0 012.069.428 2.819 2.819 0 011.2 1.33l-1.182.871a2.061 2.061 0 00-.786-1 2.368 2.368 0 00-1.283-.319 2.147 2.147 0 00-1.159.288.8.8 0 00-.459.661.754.754 0 00.412.669 4.942 4.942 0 001.5.451 5.412 5.412 0 012.334.84 1.839 1.839 0 01.684 1.524 2.006 2.006 0 01-.9 1.7 4.174 4.174 0 01-2.489.653 5.106 5.106 0 01-2.1-.41z"/><path data-name="Path 8" d="M59.853 12.593a1.378 1.378 0 00.171.8.759.759 0 00.638.226 2.81 2.81 0 00.505-.039 2.851 2.851 0 00.521-.163l-.187 1.338a2.868 2.868 0 01-1.291.264 2 2 0 01-1.532-.529 2.392 2.392 0 01-.49-1.664v-9.24h1.665z"/><path data-name="Path 9" d="M63.105 5.507a1 1 0 01-.3-.77.97.97 0 01.3-.762 1.193 1.193 0 01.824-.265 1.164 1.164 0 01.817.265.984.984 0 01.288.762 1.009 1.009 0 01-.288.77 1.142 1.142 0 01-.817.272 1.17 1.17 0 01-.824-.272zm1.649 9.357h-1.665V7.082h1.665z"/><path data-name="Path 10" d="M70.55 11.208l-1.54 1.587v2.069h-1.665V3.586h1.665v7.311l3.718-3.811h1.96l-2.971 3.049 3.158 4.729h-1.929z"/><path data-name="Path 11" d="M82.979 11.598h-5.694a2.484 2.484 0 00.731 1.563 2.18 2.18 0 001.524.537 2.651 2.651 0 001.268-.272 1.425 1.425 0 00.692-.785l1.385.575a3.355 3.355 0 01-3.345 1.8 3.8 3.8 0 01-2.87-1.073 4.1 4.1 0 01-1.035-2.971 4.2 4.2 0 011-2.979 3.644 3.644 0 012.8-1.066 3.416 3.416 0 012.66 1.042 3.955 3.955 0 01.949 2.769 5.619 5.619 0 01-.065.86zm-5-2.816a2.542 2.542 0 00-.692 1.54h4.2a2.563 2.563 0 00-.661-1.524 1.87 1.87 0 00-1.392-.544 2.015 2.015 0 00-1.455.528z"/><path data-name="Path 12" d="M86.822 13.067a1.074 1.074 0 01.319.817 1.1 1.1 0 01-.319.824 1.162 1.162 0 01-.848.311 1.189 1.189 0 01-.856-.311 1.085 1.085 0 01-.327-.824 1.074 1.074 0 01.319-.817 1.2 1.2 0 01.863-.3 1.179 1.179 0 01.849.3z"/><path data-name="Path 13" d="M96.079 7.997a4.4 4.4 0 01.918 2.964 4.459 4.459 0 01-.918 2.979 3.13 3.13 0 01-2.52 1.081 3 3 0 01-1.5-.373 2.587 2.587 0 01-1.019-1.027v4.511h-1.665V7.087h1.462l.078 1.447a2.713 2.713 0 011.034-1.167 2.961 2.961 0 011.61-.436 3.152 3.152 0 012.52 1.066zm-1.315 4.962a3.094 3.094 0 00.568-1.983 3.127 3.127 0 00-.568-1.991 1.9 1.9 0 00-1.579-.716 1.931 1.931 0 00-1.517.638 2.817 2.817 0 00-.63 1.774v.591a2.793 2.793 0 00.63 1.758 1.93 1.93 0 001.517.638 1.911 1.911 0 001.584-.709z"/><path data-name="Path 14" d="M100.785 12.593a1.379 1.379 0 00.171.8.759.759 0 00.638.226 2.811 2.811 0 00.505-.039 2.848 2.848 0 00.521-.163l-.187 1.338a2.867 2.867 0 01-1.291.264 2 2 0 01-1.532-.529 2.391 2.391 0 01-.49-1.664v-9.24h1.665z"/></g></g></g></svg>