<?xml version="1.0" standalone="no"?>
<!DOCTYPE svg PUBLIC "-//W3C//DTD SVG 1.1//EN" "http://www.w3.org/Graphics/SVG/1.1/DTD/svg11.dtd">
<svg xmlns="http://www.w3.org/2000/svg">
<metadata>Copyright (C) 2020 by original authors @ fontello.com</metadata>
<defs>
<font id="wistal" horiz-adv-x="1000" >
<font-face font-family="wistal" font-weight="400" font-stretch="normal" units-per-em="1000" ascent="850" descent="-150" />
<missing-glyph horiz-adv-x="1000" />
<glyph glyph-name="phone-form" unicode="&#xe800;" d="M749-150a100 100 0 0 1 100 100v133a33 33 0 0 1-23 32l-199 67a33 33 0 0 1-29-4l-85-57a589 589 0 0 0-242 240l56 84a33 33 0 0 1 4 30l-66 199a33 33 0 0 1-32 23h-133a100 100 0 0 1-100-100 746 746 0 0 1 230-518 751 751 0 0 1 519-229z m-649 780h109l54-161-57-87a33 33 0 0 1-4-31 551 551 0 0 1 125-175 565 565 0 0 1 177-124 33 33 0 0 1 31 4l86 57 161-53v-110a33 33 0 0 0-33-33c-351 0-682 331-682 680a33 33 0 0 0 33 33z m523-377a33 33 0 0 1 36 7l124 123h119a233 233 0 1 1 0 467h-266a233 233 0 0 1-34-464v-103a33 33 0 0 1 21-30z m-154 364a167 167 0 0 0 167 166h266a167 167 0 1 0 0-333h-133a33 33 0 0 1-24-10l-76-76v53a33 33 0 0 1-33 33 167 167 0 0 0-167 167z" horiz-adv-x="1138" />

<glyph glyph-name="rura" unicode="&#xe801;" d="M875 740a121 121 0 0 1-214 67l-633-758c0 0 0-1-1-1-1-2-3-5-5-7 0-1-1-2-2-3q-2-3-4-7c-1-1-1-2-2-4q-2-3-3-6-1-2-2-4-1-4-3-7 0-2-1-4c-1-3-1-5-2-8 0-1 0-2-1-3 0-3-1-6-1-9 0-1 0-1 0-2-1-4-1-7-1-10 0-1 0-1 0-2 0 0 0 0 0-1 0-3 0-7 1-10 0 0 0 0 0-1s0 0 0 0q0-5 1-11c0 0 0-1 0-1 1-3 2-7 3-10 0-1 0-1 0-2 1-3 2-6 3-8 1-1 1-3 2-4 1-2 2-4 3-7q1-2 2-4c1-2 2-4 3-6s3-3 4-5c1-1 2-3 3-4s2-3 4-5 3-3 4-5c1-1 2-2 3-3 2-2 4-4 6-5 1-1 1-1 2-2s1-1 1-1c2-1 4-3 6-4 1-1 1-2 2-2 3-2 5-3 7-4 1-1 2-1 3-2q3-2 7-4l2-1c3-1 6-2 8-3l1 0a121 121 0 0 1 84 1l1 1c2 0 3 1 5 1l2 1c1 1 2 1 3 2s2 1 3 1l1 1a121 121 0 0 1 34 28l633 758a121 121 0 0 1 28 89z m-703-819l0 0c-1-2-3-3-5-5l0 0c-2-1-3-2-5-3 0-1 0-1-1-1-1-1-3-2-4-3-1 0-1-1-2-1-1-1-2-1-3-2s-2-1-4-1c0 0-1-1-2-1-1 0-3-1-4-1-1-1-2-1-2-1-2 0-3-1-5-1-1 0-1 0-1 0-2-1-4-1-6-1l-1 0a72 72 0 0 0-25 2c-1 1-1 1-2 1-1 0-2 1-3 1s-2 1-3 1c-1 1-2 1-2 1a72 72 0 0 0-36 37c0 0-1 0-1 1 0 1-1 3-1 5-1 0-1 1-1 1-1 2-1 3-1 4 0 1-1 2-1 3s0 3 0 4-1 2-1 4 0 2 0 4c0 1 0 2 0 3 0 2 0 4 0 6 0 0 0 1 0 1a72 72 0 1 0 122-58z m637 762l-570-683a122 122 0 0 1-110 92l570 683a71 71 0 0 0 49 25q3 0 6 0a72 72 0 0 0 55-117z" horiz-adv-x="875" />

<glyph glyph-name="mouse" unicode="&#xe802;" d="M308-150a308 308 0 0 0-308 308v384a308 308 0 0 0 308 308 308 308 0 0 0 307-308v-384a308 308 0 0 0-307-308z m0 962a270 270 0 0 1-269-270v-384a270 270 0 0 1 269-270 270 270 0 0 1 269 270v384a270 270 0 0 1-269 270z" horiz-adv-x="615" />

<glyph glyph-name="steel" unicode="&#xe803;" d="M956 721l18 10 0 0a17 17 0 0 1 4 3 67 67 0 0 1 22 49v50c0 1 0 1 0 1a17 17 0 0 1-1 3 17 17 0 0 1-1 4c0 0 0 0 0 0a16 16 0 0 1-1 2 16 16 0 0 1-3 3 16 16 0 0 1-2 2 16 16 0 0 1-3 1 16 16 0 0 1-3 1 16 16 0 0 1-3 0h-366c-1 0-1 0-1 0a16 16 0 0 1-3-1 16 16 0 0 1-4-1c0 0 0 0 0 0l-600-333a15 15 0 0 1-2-2 16 16 0 0 1-3-2 16 16 0 0 1-1-3 16 16 0 0 1-2-2 16 16 0 0 1-1-4 15 15 0 0 1 0-2v-633a17 17 0 0 1 17-17h366a17 17 0 0 1 6 1c1 0 1 0 1 1s1 0 1 0l600 333a16 16 0 0 1 2 2 16 16 0 0 1 3 2 16 16 0 0 1 2 3 16 16 0 0 1 1 3 16 16 0 0 1 1 3 15 15 0 0 1 0 2v50a67 67 0 0 1-67 67h-200v280z m-335 96h298l-540-300h-298z m79-238v-269l-567-315v388h200a67 67 0 0 1 41 14z m-333-696h-334v600h334v-33a32 32 0 0 0-7-20 33 33 0 0 0-27-13h-216a17 17 0 0 1-17-17v-433c0-1 0-1 0-1a31 31 0 0 1 2-7c0 0 0 0 0 0a17 17 0 0 1 3-4l0 0a16 16 0 0 1 5-3c0 0 0-1 1-1a17 17 0 0 1 6-1h216a33 33 0 0 0 34-33v-34z m566 400a33 33 0 0 0 34-33v-40l-567-315v22a67 67 0 0 1-67 66h-152l540 300h212z m-533 167v40l567 315v-22a34 34 0 0 0-10-23z m475-231a17 17 0 0 1 7 2l15 7a17 17 0 0 1-16 30l-14-8a17 17 0 0 1 8-31z m-74-40h0a17 17 0 0 1 8 2l15 8a17 17 0 1 1-16 30l-15-8a17 17 0 0 1 8-32z m-124-39a17 17 0 0 1-16 0l-15-8a17 17 0 1 1 16-29l15 8a17 17 0 0 1 0 29z m-237-117l-14-8a17 17 0 0 1 15-30l15 8a17 17 0 0 1-16 30z m164 77a17 17 0 0 1-17 1h0l-14-8a17 17 0 1 1 15-29l15 8a17 17 0 0 1 1 28z m107 57a17 17 0 0 1 24-15l15 8a17 17 0 1 1-16 29l-14-7a17 17 0 0 1-9-15z m-197-95l-15-8a17 17 0 0 1 16-29l14 7a17 17 0 1 1-15 30z" horiz-adv-x="1000" />

<glyph glyph-name="blacha" unicode="&#xe804;" d="M114 850h795l-114-1000h-795z" horiz-adv-x="909" />

<glyph glyph-name="quote" unicode="&#xe805;" d="M353-150h-353v1000h459z m703 0h-353v1000h459z" horiz-adv-x="1162" />

<glyph glyph-name="ksztaltownik" unicode="&#xe806;" d="M821 791l-112-26-12 26-21 46h0l-6 13-179-51-35-112-79-18-46 88-166-52-46-107-119-34 334-714 155 42 36 116 118 23 49-96 116 32 49 106 112 41 52-93 150 38z m-333-117l20 65 318-652-30-65z m41 100l122 35 38-84h0l265-580-100-37z m-378-190l28 67 314-630-21-70z m51 97l112 35 314-653-107-21z m-154-139l75 21 328-646-98-27z m620-484h0l-279 579 71 16 312-661-62-17z m325 84l-270 591 79 18 320-669-84-21z" horiz-adv-x="1171" />

<glyph glyph-name="pret" unicode="&#xe807;" d="M832 822a121 121 0 0 1-171-16l-633-757c0 0 0-1-1-1-2-2-3-5-5-7-1-1-1-2-2-3q-3-4-5-8c0-1-1-2-1-2-2-3-3-7-4-10-1 0-1 0-1-1-1-3-3-7-4-10v0a121 121 0 0 1 4-80l0-1q2-5 4-9l1-2q2-4 5-8c0-1 1-2 1-3q3-3 5-6c1-1 2-2 2-3 2-2 4-5 6-7 1 0 2-1 2-2 3-2 5-4 7-6 1-1 1-1 2-2s1 0 1-1c2-1 4-2 5-4 1-1 2-1 3-2 2-1 4-3 6-4 2 0 3-1 4-2 2-1 4-2 6-3 1-1 2-1 4-2 1 0 3-1 5-2s3-1 5-1 3-2 5-2c1 0 2-1 3-1 2-1 5-1 7-2 2 0 3 0 4 0 2-1 5-1 8-1l2 0c3-1 6-1 9-1h0c4 0 7 0 11 1l0 0 1 0c3 0 7 1 10 1l2 0c3 1 6 2 10 3l2 0c2 1 5 2 8 3 1 1 2 1 3 2 3 1 5 2 7 3q3 1 5 2 3 2 5 3c2 2 4 3 6 4 1 1 2 2 4 3s3 2 5 4 3 3 4 4c1 1 3 2 4 3 1 2 3 4 5 6 1 1 1 1 1 2l633 757h0a121 121 0 0 1-15 171z m-138-54a315 315 0 0 0 60-151l-33-39a365 365 0 0 1-64 146z m-545-863c-1-1-3-1-5-2 0 0-1 0-2 0-1-1-2-1-4-1-1-1-2-1-3-1s-2 0-3-1-3 0-4 0-3 0-4 0c-1 0-2 0-3 0-2 0-5 0-7 0h0a72 72 0 0 0-58 43c0 0-1 0-1 0 0 2-1 4-1 5-1 1-1 2-1 2-1 2-1 3-1 4 0 1-1 2-1 3s0 3 0 4-1 2-1 3 0 3 0 5c0 1 0 2 0 3 0 2 0 4 0 6 0 0 0 0 0 1a72 72 0 1 0 100-73z m-20 187l69 83a312 312 0 0 0 59-153l-18-22a122 122 0 0 1-110 92z m95 113l39 47a316 316 0 0 0 61-150l-34-40a371 371 0 0 1-67 143z m64 78l35 41a306 306 0 0 0 57-155l-24-28a374 374 0 0 1-68 142z m60 72l36 43a303 303 0 0 0 56-157l-27-32a367 367 0 0 1-65 146z m62 73l32 39a302 302 0 0 0 55-158l-23-27a365 365 0 0 1-64 146z m58 70l33 40a306 306 0 0 0 57-155l-26-32a364 364 0 0 1-64 147z m59 71l38 46a308 308 0 0 0 58-155l-31-37a367 367 0 0 1-65 146z m64 76l40 49a303 303 0 0 0 56-157l-31-37a368 368 0 0 1-65 145z m218 38l-22-27a371 371 0 0 1-64 137 72 72 0 0 0 31 7 72 72 0 0 0 55-117z" horiz-adv-x="875" />

<glyph glyph-name="warehouse" unicode="&#xe808;" d="M960 530l-468 317a16 16 0 0 1-17 0l-468-317a16 16 0 0 1-7-13v-651a16 16 0 0 1 16-16h935a16 16 0 0 1 16 16v651a16 16 0 0 1-7 13z m-593-649h-169v169h36v-84a16 16 0 0 1 16-16h66a16 16 0 0 1 16 16v84h35v-169z m-202 568v36h637v-36z m100-468v69h36v-69z m103 101h-170v169h36v-85a16 16 0 0 1 16-15h66a16 16 0 0 1 16 15v85h35z m-103 100v69h36v-69z m303-301h-169v169h35v-84a16 16 0 0 1 16-16h67a16 16 0 0 1 15 16v84h36v-169z m-102 100v69h35v-69z m469-100h-135v335a16 16 0 1 1-32 0v-335h-169v185a16 16 0 0 1-15 16h-185v185a16 16 0 0 1-16 15h-185v136h570v-135a16 16 0 1 1 32 0v135h17a16 16 0 0 1 16 16v66a16 16 0 0 1-16 16h-668a16 16 0 0 1-15-16v-66a16 16 0 0 1 15-16h18v-537h-136v628l452 306 452-306v-628z m-385 835h-133a16 16 0 1 1 0-31h133a16 16 0 0 1 0 31z m0-66h-133a16 16 0 1 1 0-32h133a16 16 0 0 1 0 32z m0-67h-133a16 16 0 1 1 0-31h133a16 16 0 0 1 0 31z m-234-451h-66a16 16 0 0 1 0-31h66a16 16 0 0 1 0 31z m0-201h-66a16 16 0 0 1 0-31h66a16 16 0 0 1 0 31z m201 0h-67a16 16 0 0 1 0-31h67a16 16 0 0 1 0 31z" horiz-adv-x="967" />

<glyph glyph-name="truck" unicode="&#xe809;" d="M326 129a140 140 0 1 1 139-140 140 140 0 0 1-139 140z m0-233a93 93 0 1 0 93 93 93 93 0 0 0-93-93z m790 233a140 140 0 1 1 140-140 140 140 0 0 1-140 140z m0-233a93 93 0 1 0 93 93 93 93 0 0 0-93-93z m276 362l-210 326a23 23 0 0 1-19 10h-256a23 23 0 0 1-23-23v-582a23 23 0 0 1 23-23h93v47h-70v535h220l199-309v-226h-116v-47h139a23 23 0 0 1 23 23v256a23 23 0 0 1-3 13z m-369 34v163h186v46h-209a23 23 0 0 1-23-23v-209a23 23 0 0 1 23-24h349v47h-326z m-116 465h-884a23 23 0 0 1-23-23v-745a23 23 0 0 1 23-23h186v47h-162v698h837v-698h-442v-47h465a23 23 0 0 1 23 24v744a23 23 0 0 1-23 23z" horiz-adv-x="1395" />

<glyph glyph-name="house" unicode="&#xe80a;" d="M777-150h-647a130 130 0 0 0-130 130v509a37 37 0 0 0 14 29l417 324a37 37 0 0 0 46 0l416-324a38 38 0 0 0 14-29v-509a130 130 0 0 0-130-130z m-702 620v-490a55 55 0 0 1 55-56h647a55 55 0 0 1 55 56v490l-379 295z m518-620a37 37 0 0 0-38 37v426h-203v-426a37 37 0 0 0-74 0v463a37 37 0 0 0 37 37h277a37 37 0 0 0 38-37v-463a37 37 0 0 0-37-37z" horiz-adv-x="908" />

<glyph glyph-name="safety" unicode="&#xe80b;" d="M790 53a19 19 0 0 1-24-31l33-25a19 19 0 0 1 26 2l64 70a19 19 0 1 1-29 26l-51-57z m205 103a19 19 0 0 1-17 19 250 250 0 0 0-145 79 19 19 0 0 1-14 6h0a19 19 0 0 1-14-6 293 293 0 0 0-63-50 350 350 0 0 1-144 97c-1 0-1 0-2 0q-6 3-13 5c48 48 80 110 80 167v30a64 64 0 0 1-2 119 239 239 0 0 1-172 205 29 29 0 0 1-29 23h-70a29 29 0 0 1-28-22 240 240 0 0 1-177-206 64 64 0 0 1-2-119v-30c0-56 32-119 80-167q-7-2-13-5a19 19 0 0 1-2-1 350 350 0 0 1-158-113 452 452 0 0 1-85-185c-6-26-10-58 8-80 17-21 48-24 73-24h126a19 19 0 1 1 0 39h-126c-24 0-38 3-43 9-6 7-6 23 0 48 20 91 69 202 188 258a188 188 0 0 1 54-136 19 19 0 0 1 29-1l109 106 109-106a19 19 0 0 1 14-6h1a19 19 0 0 1 14 7 189 189 0 0 1 54 136 309 309 0 0 0 91-66 168 168 0 0 0-45-11 19 19 0 0 1-18-19 325 325 0 0 1 41-177c0 0 11-19 27-43h-323a19 19 0 1 1 0-38h354c24-26 51-48 77-48 63 0 135 128 135 129a326 326 0 0 1 41 177z m-374 470h-107a420 420 0 0 0-24 160 200 200 0 0 0 131-160z m-221 185h51c0-75 2-126 22-185h-96c21 59 23 110 23 185z m-39-23a423 423 0 0 0-25-162h-111a203 203 0 0 0 136 162z m-153-200h130c1-1 2-2 3 0h297a25 25 0 0 0 0-51h-430a25 25 0 1 0 0 51z m13-115v25h403v-25c0-74-71-165-153-196a123 123 0 0 0-97 0c-81 31-153 122-153 196z m81-316a132 132 0 0 0-30 111q13 4 26 7a261 261 0 0 1 63-34c7-3 14-5 20-6z m242 0l-79 78c6 1 13 3 20 6a260 260 0 0 1 62 34q14-3 27-7a132 132 0 0 0-30-111z m376-160c-23-42-76-108-101-108s-78 66-101 108a280 280 0 0 0-36 142 243 243 0 0 1 64 23 19 19 0 0 1 2 1 327 327 0 0 1 71 50 292 292 0 0 1 138-74 281 281 0 0 0-37-142z m-620-60a19 19 0 1 1 0-39h0a19 19 0 0 1 0 39z" horiz-adv-x="996" />

<glyph glyph-name="partnership" unicode="&#xe80c;" d="M1009 426l-169 220a20 20 0 0 1-27 5l-109-70h-143a20 20 0 0 1-5-1l-111-32-115 32-112 71a20 20 0 0 1-26-4l-188-233a20 20 0 0 1 3-28l98-84 89-119a70 70 0 0 1 44-118 71 71 0 0 1-1-11 70 70 0 0 1 70-70h1c0 0 0-1 0-1a70 70 0 0 1 70-71 72 72 0 0 1 11 1 70 70 0 0 1 120-43l10 11 5-3a70 70 0 0 1 119 51 70 70 0 0 1 71 71 70 70 0 0 1 71 72 70 70 0 0 1 60 108l65 135 97 83a20 20 0 0 1 2 28z m-797 182l80-51-174-213-70 60z m11-451l24 24c1 1 2 1 3 2a30 30 0 0 0 16 7h1c1 0 2 0 2 0a30 30 0 0 0 22-10 31 31 0 0 0-1-43l-24-24a31 31 0 1 0-43 43z m63-124a31 31 0 0 0 0 43l47 47a31 31 0 0 0 34 6 30 30 0 0 0 17-32 32 32 0 0 0-9-18l-46-46a31 31 0 0 0-43 0z m70-72a31 31 0 0 0 0 43l47 47a31 31 0 0 0 37 5 30 30 0 0 0 15-31 32 32 0 0 0-9-18l-46-46a31 31 0 0 0-44 0z m81-62a31 31 0 0 0 0 43l25 24c0 1 1 1 2 2l0 0a30 30 0 0 0 13 6l1 0c1 0 1 1 2 1l1 0c1 0 2 0 2 0a30 30 0 0 0 22-10 28 28 0 0 0 2-2 32 32 0 0 0-3-41l-24-24a31 31 0 0 0-43 0z m371 221a31 31 0 0 0-43 0 18 18 0 0 1-1 2l-128 129a20 20 0 0 1-28-28l129-131 0 0a31 31 0 1 0-43-43l-87 87a20 20 0 0 1-28-28l85-86a19 19 0 0 1 1-1 31 31 0 1 0-43-43l-47 47a20 20 0 1 1-28-28l46-46a18 18 0 0 1 1-1 31 31 0 0 0-43-44 44 44 0 0 1-4 4c-2 1-2 2-1 3s1 3 2 5 1 4 2 5a72 72 0 0 1 2 31 70 70 0 0 1-59 60 71 71 0 0 1-17 64 70 70 0 0 1-50 22h-2a70 70 0 0 1-69 72 72 72 0 0 1-17-2 70 70 0 0 1-116 41l-77 104 184 224 59-16-77-135a70 70 0 0 1 27-96q1-1 3-2l0 0a71 71 0 0 1 8-3 70 70 0 0 1 84 32l50 87 89-6 236-236a31 31 0 0 0 0-44z m8 92l-221 221a18 18 0 0 1-2 1 20 20 0 0 1-11 5l-109 8a20 20 0 0 1-18-10l-56-99a31 31 0 1 0-53 30l74 132 30 8 1 1 113 32h136l170-216z m80 144l-157 200 80 51 148-191z m0 0m-282 262a20 20 0 0 1 14 6l136 136a20 20 0 0 1-28 28l-136-136a20 20 0 0 1 14-34z m0 0m-229 6a20 20 0 0 1 29 28l-136 136a20 20 0 1 1-28-28z m0 0m122-6a20 20 0 0 1 20 20v113a20 20 0 1 1-40 0v-113a20 20 0 0 1 20-20z m0 0m-19 205a20 20 0 1 1 31 23 20 20 0 0 1-31-23z m0 0" horiz-adv-x="1014" />

<glyph glyph-name="arrow-left" unicode="&#xe80d;" d="M500 850a63 63 0 0 0 44-107l-331-330 725 0a63 63 0 0 0 0-125l-725 0 331-331a63 63 0 0 0-88-89l-438 438a62 62 0 0 0 0 88l438 438a62 62 0 0 0 44 18z" horiz-adv-x="1000" />

<glyph glyph-name="arrow-right" unicode="&#xe80e;" d="M500-150a63 63 0 0 0-44 107l331 331h-724a63 63 0 0 0 0 125h724l-331 330a63 63 0 0 0 88 89l438-438a62 62 0 0 0 0-88l-438-438a62 62 0 0 0-44-18z" horiz-adv-x="1000" />

<glyph glyph-name="arrow-up" unicode="&#xe80f;" d="M1000 350a63 63 0 0 0-107-44l-330 331 0-725a63 63 0 0 0-125 0l0 725-331-331a63 63 0 0 0-89 88l438 438a62 62 0 0 0 88 0l438-438a62 62 0 0 0 18-44z" horiz-adv-x="1000" />

<glyph glyph-name="at" unicode="&#xe810;" d="M500 123a227 227 0 1 0 227 227 228 228 0 0 0-227-227z m0 363a136 136 0 1 1 136-136 137 137 0 0 1-136 136z m0-636a500 500 0 1 0 500 500v-45a182 182 0 1 0-364 0v227a46 46 0 0 0 91 0v-227a91 91 0 1 1 182 0v45a409 409 0 1 1-160-325 46 46 0 0 0 55-72 503 503 0 0 0-304-103z" horiz-adv-x="1000" />

<glyph glyph-name="email-form" unicode="&#xe811;" d="M1191 593a35 35 0 0 1-25 32c-7 2 1 2-247 2a500 500 0 1 1 0-554h237a35 35 0 0 1 35 35c0 425 0 482 0 485z m-135-36l-205-162-210 162z m-554-637a430 430 0 1 0 0 860 427 427 0 0 0 330-153c-313 0-292 0-295 0a35 35 0 0 1-32-32c0-3 0 13 0-191h-170a35 35 0 1 1 0-70h170v-226a35 35 0 0 1 35-35h292a427 427 0 0 0-330-153z m72 223v378l256-198a35 35 0 0 1 43 0l248 197v-377z m-276 340h56a35 35 0 1 1 0 69h-56a35 35 0 0 1 0-69z m37-228h-112a35 35 0 0 1 0-70h112a35 35 0 0 1 0 70z" horiz-adv-x="1191" />

<glyph glyph-name="groth-down" unicode="&#xe812;" d="M742-150l-742 773 237 227 505-526 504 526 237-227z" horiz-adv-x="1483" />

<glyph glyph-name="groth-right" unicode="&#xe813;" d="M674 350l-521-500-153 160 355 340-355 340 153 160z" horiz-adv-x="674" />

<glyph glyph-name="map-marker" unicode="&#xe814;" d="M408-150a38 38 0 0 0-19 5c-16 9-389 223-389 578a408 408 0 0 0 816 19q0-10 0-20c0-354-373-568-389-577a38 38 0 0 0-19-5z m0 923c-3 0-5 0-8 0a331 331 0 0 1-323-339c0-268 258-454 331-500 73 46 331 232 331 499 0 7 0 12 0 17a331 331 0 0 1-331 323z m0-507a177 177 0 1 0 177 176 177 177 0 0 0-177-176z m0 277a100 100 0 1 1 100-101 100 100 0 0 1-100 101z" horiz-adv-x="816" />

<glyph glyph-name="phone" unicode="&#xe815;" d="M861-150a121 121 0 0 0-12 1 953 953 0 0 0-414 147 940 940 0 0 0-287 287 953 953 0 0 0-147 415 137 137 0 0 0 124 150c4 0 8 0 12 0h138a137 137 0 0 0 135-118 542 542 0 0 1 29-118 137 137 0 0 0-30-144l-33-33a685 685 0 0 1 209-209l33 32a137 137 0 0 0 144 31 541 541 0 0 1 118-29 137 137 0 0 0 118-139v-136a137 137 0 0 0-136-137z m-587 909h-137a48 48 0 0 1-35-17 45 45 0 0 1-11-33 860 860 0 0 1 133-375 850 850 0 0 1 260-260 862 862 0 0 1 374-133 48 48 0 0 1 36 14 45 45 0 0 1 13 32v138a46 46 0 0 1-39 46 629 629 0 0 0-138 35 46 46 0 0 1-48-11l-58-57a46 46 0 0 0-55-8 775 775 0 0 0-291 291 46 46 0 0 0 8 55l58 58a46 46 0 0 1 10 48 633 633 0 0 0-35 138 46 46 0 0 1-45 39z" horiz-adv-x="998" />

<glyph glyph-name="search" unicode="&#xe816;" d="M450-50a450 450 0 1 0 450 450 451 451 0 0 0-450-450z m0 800a350 350 0 1 1 350-350 350 350 0 0 1-350 350z m500-900a50 50 0 0 0-35 15l-218 217a50 50 0 0 0 71 71l217-218a50 50 0 0 0-35-85z" horiz-adv-x="1000" />

<glyph glyph-name="arrow-down" unicode="&#xe817;" d="M0 350a63 63 0 0 0 107 44l331-331 0 725a63 63 0 0 0 125 0l0-725 330 331a63 63 0 0 0 89-88l-438-438a62 62 0 0 0-88 0l-438 438a62 62 0 0 0-18 44z" horiz-adv-x="1000" />

<glyph glyph-name="award" unicode="&#xe818;" d="M824-19l-105 135a152 152 0 0 1 83 62c25 42 14 94 3 145a397 397 0 0 0-12 79 396 396 0 0 0 12 79c11 50 22 102-3 145-25 44-77 60-127 76a369 369 0 0 0-71 28 350 350 0 0 0-58 47c-37 34-79 73-132 73s-95-39-132-73a350 350 0 0 0-58-47 369 369 0 0 0-72-28c-49-15-101-32-126-76-25-43-14-95-3-145a396 396 0 0 0 11-79 396 396 0 0 0-11-79c-11-51-22-103 3-145a152 152 0 0 1 83-62l-105-135a17 17 0 0 1 15-27l124 15 30-107a17 17 0 0 1 13-12 18 18 0 0 1 4 0 17 17 0 0 1 13 7l110 141a159 159 0 0 1 101-45 159 159 0 0 1 100 45l110-141a17 17 0 0 1 14-7 18 18 0 0 1 3 0 17 17 0 0 1 14 12l30 107 123-15a17 17 0 0 1 16 27z m-627-76l-25 88a17 17 0 0 1-19 12l-96-12 86 111 10-3a369 369 0 0 0 71-28 350 350 0 0 0 58-46l6-6z m217 83c-40 0-73 31-109 64a380 380 0 0 1-64 51 400 400 0 0 1-78 31c-46 15-89 28-108 61-18 31-8 74 2 121a422 422 0 0 1 12 86 422 422 0 0 1-12 86c-10 46-20 89-2 121 19 32 62 46 108 60a400 400 0 0 1 78 31 380 380 0 0 1 64 52c36 32 69 64 109 64s73-31 109-64a380 380 0 0 1 63-52 400 400 0 0 1 79-31c45-14 88-28 107-60 18-32 9-75-1-121a422 422 0 0 1-12-86 422 422 0 0 1 12-86c10-46 19-90 1-121-19-33-62-46-107-61a400 400 0 0 1-79-31 380 380 0 0 1-63-51c-36-33-69-64-109-64z m261 17a17 17 0 0 1-19-12l-25-88-91 116 6 6a350 350 0 0 0 58 46 369 369 0 0 0 71 28l10 3 86-111z m-261 707a310 310 0 1 1 310-310 310 310 0 0 1-310 310z m0-586a276 276 0 1 0 276 276 276 276 0 0 0-276-276z m199 348a35 35 0 0 1-28 14h-106l-32 100a35 35 0 0 1-66 0l-33-100h-105a35 35 0 0 1-21-62l86-62-33-101a35 35 0 0 1 53-38l86 62 85-62a35 35 0 0 1 53 38l-32 101 85 62a35 35 0 0 1 8 48z m-124-90a17 17 0 0 1-6-19l37-113-96 70a17 17 0 0 1-20 0l-96-70 37 113a17 17 0 0 1-7 19l-95 69h118a17 17 0 0 1 16 12l37 113 36-112a17 17 0 0 1 17-12h118z" horiz-adv-x="828" />

<glyph glyph-name="network" unicode="&#xe819;" d="M933 650a67 67 0 1 1 67-67 67 67 0 0 1-67 67z m0-100a33 33 0 1 0 34 33 33 33 0 0 0-34-33z m-866-450a67 67 0 1 1 66-67 67 67 0 0 1-66 67z m0-100a33 33 0 1 0 33 33 33 33 0 0 0-33-33z m834 629l-144 69a17 17 0 1 1-14-30l144-69a17 17 0 0 1 14 30z m-151-646a67 67 0 1 1 67-66 67 67 0 0 1-67 66z m0-100a33 33 0 1 0 33 34 33 33 0 0 0-33-34z m-32 79l-144 70a17 17 0 0 1-15-30l144-70a17 17 0 0 1 15 30z m-218 438a67 67 0 1 1 67-67 67 67 0 0 1-67 67z m0-100a33 33 0 1 0 33 33 33 33 0 0 0-33-33z m-29 77l-111 86a17 17 0 1 1-20-26l110-86a17 17 0 1 1 21 26z m329 40a183 183 0 1 1 183-184 184 184 0 0 1-183 184z m0-334a150 150 0 1 0 150 150 150 150 0 0 0-150-150z m0 267a67 67 0 1 1 67-67 67 67 0 0 1-67 67z m0-100a33 33 0 1 0 33 33 33 33 0 0 0-33-33z m48-67h-96a51 51 0 0 1-52-50v-44a17 17 0 0 1 8-14 182 182 0 0 1 184 0 17 17 0 0 1 8 14v44a51 51 0 0 1-52 50z m19-84a151 151 0 0 0-134 0v34a18 18 0 0 0 19 17h96a18 18 0 0 0 19-17v-34z m-467 118a183 183 0 1 1 183-184 184 184 0 0 1-183 184z m0-334a150 150 0 1 0 150 150 150 150 0 0 0-150-150z m0 267a67 67 0 1 1 67-67 67 67 0 0 1-67 67z m0-100a33 33 0 1 0 33 33 33 33 0 0 0-33-33z m48-67h-96a51 51 0 0 1-52-50v-44a17 17 0 0 1 8-14 182 182 0 0 1 184 0 17 17 0 0 1 8 14v44a51 51 0 0 1-52 50z m19-84a151 151 0 0 0-134 0v34a18 18 0 0 0 19 17h96a18 18 0 0 0 19-17v-34z m-284 734a183 183 0 1 1 184-183 184 184 0 0 1-184 183z m0-333a150 150 0 1 0 150 150 150 150 0 0 0-150-150z m0 267a67 67 0 1 1 67-67 67 67 0 0 1-67 67z m0-100a33 33 0 1 0 34 33 33 33 0 0 0-34-33z m49-67h-97a51 51 0 0 1-52-50v-44a17 17 0 0 1 9-15 182 182 0 0 1 183 0 17 17 0 0 1 8 15v44a51 51 0 0 1-51 50z m18-84a151 151 0 0 0-133 0v34a18 18 0 0 0 18 17h97a18 18 0 0 0 18-17v-34z m333 534a183 183 0 1 1 184-183 184 184 0 0 1-184 183z m0-333a150 150 0 1 0 150 150 150 150 0 0 0-150-150z m0 266a67 67 0 1 1 67-66 67 67 0 0 1-67 66z m0-100a33 33 0 1 0 34 34 33 33 0 0 0-34-34z m49-66h-97a51 51 0 0 1-52-51v-44a17 17 0 0 1 9-14 182 182 0 0 1 183 0 17 17 0 0 1 8 14v44a51 51 0 0 1-51 51z m18-85a151 151 0 0 0-133 0v34a18 18 0 0 0 18 17h97a18 18 0 0 0 18-17v-34z m-221 146a17 17 0 0 1-23 1l-116-98a17 17 0 1 1 22-26l116 99a17 17 0 0 1 1 24z m368-268l-100 133a17 17 0 0 1-27-20l100-133a17 17 0 0 1 27 20z m-137-232a17 17 0 0 1-23 4l-94-70a17 17 0 0 1 20-27l94 70a17 17 0 0 1 3 23z m-427-128h-116a17 17 0 1 1 0-33h116a17 17 0 0 1 0 33z m-50 800a67 67 0 1 1 67-67 67 67 0 0 1-67 67z m0-100a33 33 0 1 0 34 33 33 33 0 0 0-34-33z m0 0a17 17 0 0 1-16-17v-116a17 17 0 1 1 33 0v116a17 17 0 0 1-17 17z" horiz-adv-x="1000" />

<glyph glyph-name="instagram" unicode="&#xf16d;" d="M571 350q0 59-41 101t-101 42-101-42-42-101 42-101 101-42 101 42 41 101z m77 0q0-91-64-156t-155-64-156 64-64 156 64 156 156 64 155-64 64-156z m61 229q0-21-15-36t-37-15-36 15-15 36 15 36 36 15 37-15 15-36z m-280 123q-4 0-43 0t-59 0-54-2-57-5-40-11q-28-11-49-32t-33-49q-6-16-10-40t-6-58-1-53 0-59 0-43 0-43 0-59 1-53 6-58 10-40q12-28 33-49t49-32q16-6 40-11t57-5 54-2 59 0 43 0 42 0 59 0 54 2 58 5 39 11q28 11 50 32t32 49q6 16 10 40t6 58 1 53 0 59 0 43 0 43 0 59-1 53-6 58-10 40q-11 28-32 49t-50 32q-16 6-39 11t-58 5-54 2-59 0-42 0z m428-352q0-128-3-177-5-116-69-180t-179-69q-50-3-177-3t-177 3q-116 6-180 69t-69 180q-3 49-3 177t3 177q5 116 69 180t180 69q49 3 177 3t177-3q116-6 179-69t69-180q3-49 3-177z" horiz-adv-x="857.1" />

<glyph glyph-name="twitter" unicode="&#xf309;" d="M920 636q-36-54-94-98l0-24q0-130-60-250t-186-203-290-83q-160 0-290 84 14-2 46-2 132 0 234 80-62 2-110 38t-66 94q10-4 34-4 26 0 50 6-66 14-108 66t-42 120l0 2q36-20 84-24-84 58-84 158 0 48 26 94 154-188 390-196-6 18-6 42 0 78 55 133t135 55q82 0 136-58 60 12 120 44-20-66-82-104 56 8 108 30z" horiz-adv-x="920" />

<glyph glyph-name="facebook" unicode="&#xf30c;" d="M500 644l-142 0q-14 0-25-15t-11-37l0-102 178 0 0-148-178 0 0-442-170 0 0 442-152 0 0 148 152 0 0 86q0 94 59 159t147 65l142 0 0-156z" horiz-adv-x="500" />

<glyph glyph-name="linkedin" unicode="&#xf318;" d="M204 698q0-40-29-68t-75-28q-44 0-72 28t-28 68q0 42 28 69t74 27 73-27 29-69z m-198-790l0 618 192 0 0-618-192 0z m306 420q0 86-4 198l166 0 10-86 4 0q60 100 190 100 100 0 161-67t61-199l0-366-192 0 0 342q0 134-98 134-70 0-98-72-6-12-6-48l0-356-194 0 0 420z" horiz-adv-x="900" />
</font>
</defs>
</svg>
