<svg xmlns="http://www.w3.org/2000/svg" width="512" height="463.953" viewBox="0 0 512 463.953">
  <g id="internet" transform="translate(0 -0.501)">
    <path id="Path_1" data-name="Path 1" d="M493.406,190.934h-9.141A232.006,232.006,0,0,0,91.969,68.446,230.267,230.267,0,0,0,27.551,191.938H18.594A18.613,18.613,0,0,0,0,210.532V278.1A18.616,18.616,0,0,0,18.594,296.7H33.1A231.942,231.942,0,0,0,104.91,408.509a7.508,7.508,0,0,0,9.785-11.391,217.419,217.419,0,0,1-24.75-25.012,287.966,287.966,0,0,1,35.016-12.094,248.911,248.911,0,0,0,18.883,28.57,292.755,292.755,0,0,0,50.969,52.07,215.163,215.163,0,0,1-44.031-18.391,7.509,7.509,0,0,0-7.293,13.129,232.18,232.18,0,0,0,335.4-138.352h14.516A18.613,18.613,0,0,0,512,278.446V209.528a18.616,18.616,0,0,0-18.594-18.594Zm-24.426,0H416.754c-.625-3.891-1.316-7.781-2.121-11.668a264.552,264.552,0,0,0-20.8-61.508c1.383-.379,2.773-.75,4.148-1.141a286.233,286.233,0,0,0,33.68-11.566,214.6,214.6,0,0,1,37.324,85.883Zm-67.277,1H324.125c-.258-3.766-.539-7.531-.871-11.289-1.488-16.8-3.684-33.059-6.512-48.609a486.025,486.025,0,0,0,62.246-10.473,249.333,249.333,0,0,1,20.941,60.746c.664,3.2,1.238,6.414,1.773,9.625Zm7.711-112.879q6.633,6.633,12.609,13.73a289.783,289.783,0,0,1-28.176,9.391c-2.352.672-4.719,1.316-7.094,1.949a263.8,263.8,0,0,0-15.672-24.777A257.9,257.9,0,0,0,318.109,24.5a215.876,215.876,0,0,1,91.3,54.563ZM279.152,16.743a244.04,244.04,0,0,1,79.711,71.336q6.867,9.627,12.738,19.789a474.71,474.71,0,0,1-57.793,9.387c-8.691-40.465-21.855-75.32-38.344-100.867q1.846.158,3.688.355ZM256,15.516c.184,0,.363,0,.547,0,18.242,24.074,32.828,60.035,42.223,103.039q-24.059,1.734-49.262,1.383c-11.4-.164-23.6-.52-36.3-1.293C222.6,75.606,237.2,39.61,255.453,15.52c.184,0,.363,0,.547,0Zm-19.465.871C220,41.993,206.82,76.953,198.128,117.535a430.753,430.753,0,0,1-58.215-8.84Q146,98.107,153.136,88.074a244.125,244.125,0,0,1,79.711-71.336q1.84-.193,3.688-.352ZM195.2,132.356c-2.8,15.453-4.977,31.609-6.453,48.293-.332,3.758-.613,7.523-.867,11.289h-77.59c.531-3.211,1.117-6.422,1.781-9.625a249.507,249.507,0,0,1,20.531-59.9,436.738,436.738,0,0,0,62.6,9.945Zm-92.613-53.3A215.876,215.876,0,0,1,193.89,24.5a257.712,257.712,0,0,0-52.973,54.855A262.547,262.547,0,0,0,124.824,104.9,287.306,287.306,0,0,1,89.933,92.84q6-7.107,12.652-13.781Zm-22.25,26.008a297.7,297.7,0,0,0,37.473,13.445,264.645,264.645,0,0,0-20.441,60.754q-1.307,6.328-2.285,12.672H42.824a214.583,214.583,0,0,1,37.512-86.871ZM18.593,281.68a3.583,3.583,0,0,1-3.578-3.582v-67.57a3.583,3.583,0,0,1,3.578-3.578H235.312a7.508,7.508,0,0,0,0-15.016H202.922c.234-3.32.488-6.645.781-9.961,1.488-16.8,3.691-33.016,6.535-48.465,13.7.879,26.82,1.27,39.055,1.445q4.441.064,8.859.066,22.219,0,43.59-1.633c2.852,15.484,5.063,31.742,6.555,48.586q.439,4.975.785,9.961H282.187a7.508,7.508,0,0,0,0,15.016H398.64v74.727H18.593Zm378.246,15.012a238.916,238.916,0,0,1-17.9,46.68A486.312,486.312,0,0,0,316.816,332.9c2.156-11.738,3.926-23.84,5.293-36.207h74.73Zm-89.82,0c-1.355,11.926-3.1,23.582-5.211,34.879q-25.641-1.945-52.516-1.574c-12.258.176-25.406.566-39.125,1.449-2.1-11.258-3.836-22.871-5.187-34.754ZM80.382,359.867a216.768,216.768,0,0,1-31.621-63.176H99.667a254.487,254.487,0,0,0,18.137,49.75A297.275,297.275,0,0,0,80.382,359.867Zm34.793-63.176h74.7c1.355,12.266,3.113,24.27,5.246,35.914a436.727,436.727,0,0,0-62.492,9.926,238.94,238.94,0,0,1-17.457-45.84Zm117.6,151.473c-28.09-15.824-54.7-39.559-77-68.707a233.119,233.119,0,0,1-15.652-23.25,431.287,431.287,0,0,1,57.969-8.789,386.516,386.516,0,0,0,10.543,38.961c5.984,18.082,15.379,42.2,28.012,62.176-1.289-.113-2.578-.25-3.867-.391ZM256,449.438c-.184,0-.363-.008-.547-.008-11.82-15.66-23.062-39.035-32.566-67.766-3.691-11.16-6.914-23-9.672-35.363,12.7-.77,24.895-1.129,36.293-1.293q25.189-.357,49.258,1.391c-2.754,12.324-5.973,24.137-9.652,35.266-9.5,28.73-20.746,52.105-32.566,67.766-.184,0-.363.008-.547.008Zm19.344-.859c12.641-19.977,22.043-44.109,28.023-62.2a383.964,383.964,0,0,0,10.48-38.672,474.672,474.672,0,0,1,57.543,9.328,232.9,232.9,0,0,1-15.16,22.422c-22.324,29.176-48.965,52.93-77.082,68.754q-1.9.2-3.8.367Zm134.07-62.687a215.817,215.817,0,0,1-92.367,54.871,292.7,292.7,0,0,0,51.109-52.18,248.033,248.033,0,0,0,18.438-27.8q3.645.973,7.254,1.992A290.874,290.874,0,0,1,422,372.157c-3.988,4.723-8.168,9.316-12.59,13.734Zm22.219-26a286.472,286.472,0,0,0-33.656-11.555c-1.375-.395-2.766-.762-4.148-1.141a254.4,254.4,0,0,0,18.414-50.156h50.953a214.565,214.565,0,0,1-31.562,62.852ZM496.984,278.1a3.583,3.583,0,0,1-3.578,3.578H413.652V206.95h79.754a3.586,3.586,0,0,1,3.578,3.582Zm0,0" fill="#fff"/>
    <path id="Path_2" data-name="Path 2" d="M56.816,258.836c0,1.109-1.668,2.273-3.609,2.273-2.105,0-3.551-1.164-3.551-2.273V221.613c0-1.332,1.445-2.223,3.551-2.223,1.941,0,3.609.891,3.609,2.223v17.027a7.6,7.6,0,0,1,6.988-4.215c5.1,0,9.539,5.105,9.539,11.262v13.144c0,1.5-1.828,2.277-3.605,2.277-1.664,0-3.551-.777-3.551-2.277V245.687a5.129,5.129,0,0,0-4.824-4.992,4.717,4.717,0,0,0-4.551,4.992v13.148Zm0,0" fill="#fff"/>
    <path id="Path_3" data-name="Path 3" d="M89.1,252.121c0,2.164.777,2.941,3.109,2.941h2.164a3.024,3.024,0,1,1,0,6.047H92.211c-6.656,0-10.262-2.719-10.262-8.988v-26.9c0-1.332,1.883-2.219,3.551-2.219,1.828,0,3.605.887,3.605,2.219v9.539h6.547c1.164,0,1.828,1.332,1.828,2.609,0,1.328-.664,2.605-1.828,2.605H89.106v12.148Zm0,0" fill="#fff"/>
    <path id="Path_4" data-name="Path 4" d="M111.684,252.121c0,2.164.773,2.941,3.105,2.941h2.164a3.024,3.024,0,1,1,0,6.047h-2.164c-6.656,0-10.262-2.719-10.262-8.988v-26.9c0-1.332,1.887-2.219,3.551-2.219,1.832,0,3.605.887,3.605,2.219v9.539h6.547c1.164,0,1.828,1.332,1.828,2.609,0,1.328-.664,2.605-1.828,2.605h-6.547Zm0,0" fill="#fff"/>
    <path id="Path_5" data-name="Path 5" d="M133.93,236.977v1.664a8.722,8.722,0,0,1,7.488-4.215c5.547,0,9.93,5.105,9.93,11.262v4.547c0,5.938-4.547,11.375-9.707,11.375a8.239,8.239,0,0,1-7.266-4.383v13.867c0,1.164-1.664,2.273-3.664,2.273-2.051,0-3.492-1.109-3.492-2.273V236.977c0-1.332,1.5-2.219,3.383-2.219,1.941,0,3.328.887,3.328,2.219Zm10.262,8.711a5.206,5.206,0,0,0-5.047-4.992,4.852,4.852,0,0,0-4.77,4.992v5.547c0,1.164,2.051,4.105,4.879,4.105a5.289,5.289,0,0,0,4.938-5.105Zm0,0" fill="#fff"/>
    <path id="Path_6" data-name="Path 6" d="M171.711,253.785c0-4.879-13.148-1.828-13.148-11.094,0-3.937,2.5-8.266,9.93-8.266,4.5,0,8.82,1.555,8.82,3.605,0,1-.941,3.441-2.605,3.441-1.332,0-3.051-1.609-6.1-1.609-2.773,0-3.883,1.387-3.883,2.5,0,4.051,13.313,1.277,13.313,11.148,0,4.941-3.66,8.1-10.207,8.1-5.656,0-10.039-2.332-10.039-4.773,0-1.164,1-3.16,2.383-3.16,1.609,0,2.832,2.5,7.492,2.5,3.27,0,4.047-1.277,4.047-2.387Zm0,0" fill="#fff"/>
    <path id="Path_7" data-name="Path 7" d="M192.738,241.473a3.837,3.837,0,0,1-3.715,3.77,3.772,3.772,0,1,1,3.715-3.77Zm0,16.2a3.838,3.838,0,0,1-3.715,3.773,3.772,3.772,0,1,1,3.715-3.773Zm0,0" fill="#fff"/>
    <path id="Path_8" data-name="Path 8" d="M224.414,220.836a2.148,2.148,0,0,1-.223,1l-19.914,40.277a2.413,2.413,0,0,1-2.164,1.219,2.588,2.588,0,0,1-2.664-2.441,1.89,1.89,0,0,1,.277-.941L219.641,219.5a2.165,2.165,0,0,1,2-1.164,2.69,2.69,0,0,1,2.773,2.5Zm0,0" fill="#fff"/>
    <path id="Path_9" data-name="Path 9" d="M241.172,220.836a2.2,2.2,0,0,1-.223,1l-19.918,40.277a2.4,2.4,0,0,1-2.16,1.219,2.588,2.588,0,0,1-2.664-2.441,1.851,1.851,0,0,1,.277-.941L236.4,219.5a2.161,2.161,0,0,1,2-1.164,2.692,2.692,0,0,1,2.773,2.5Zm0,0" fill="#fff"/>
    <path id="Path_10" data-name="Path 10" d="M273.238,260.441c-.391.945-1.609,1.277-2.828,1.277-1.387,0-2.609-.445-2.941-1.277L263.2,248.347l-4.215,12.039c-.332.887-1.664,1.332-3.051,1.332-1.164,0-2.387-.332-2.773-1.332l-8.543-21.91a2.278,2.278,0,0,1-.277-1.055c0-1.719,2.773-2.941,4.66-2.941a2.029,2.029,0,0,1,2.051,1.164l5.547,15.754,4.16-13.7c.391-1.273,1.332-1.441,2.441-1.441,1.055,0,2.055.168,2.441,1.441l4.105,13.758,5.6-15.809a2.06,2.06,0,0,1,2.055-1.164c1.773,0,4.605,1.219,4.605,3a2.032,2.032,0,0,1-.223,1Zm0,0" fill="#fff"/>
    <path id="Path_11" data-name="Path 11" d="M315.012,260.441c-.387.945-1.605,1.277-2.828,1.277-1.387,0-2.605-.445-2.941-1.277l-4.27-12.094-4.219,12.039c-.332.887-1.66,1.332-3.051,1.332-1.164,0-2.383-.332-2.773-1.332l-8.543-21.91a2.278,2.278,0,0,1-.277-1.055c0-1.719,2.773-2.941,4.66-2.941a2.038,2.038,0,0,1,2.055,1.164l5.547,15.754,4.16-13.7c.387-1.273,1.332-1.441,2.441-1.441,1.055,0,2.051.168,2.438,1.441l4.105,13.758,5.605-15.809a2.058,2.058,0,0,1,2.051-1.164c1.777,0,4.605,1.219,4.605,3a2.032,2.032,0,0,1-.223,1Zm0,0" fill="#fff"/>
    <path id="Path_12" data-name="Path 12" d="M356.789,260.441c-.387.945-1.605,1.277-2.828,1.277-1.387,0-2.605-.445-2.941-1.277l-4.27-12.094-4.219,12.039c-.332.887-1.664,1.332-3.051,1.332-1.164,0-2.383-.332-2.773-1.332l-8.543-21.91a2.278,2.278,0,0,1-.277-1.055c0-1.719,2.773-2.941,4.66-2.941a2.038,2.038,0,0,1,2.055,1.164l5.547,15.754,4.16-13.7c.387-1.273,1.328-1.441,2.438-1.441,1.055,0,2.055.168,2.441,1.441l4.105,13.758,5.605-15.809a2.055,2.055,0,0,1,2.051-1.164c1.773,0,4.605,1.219,4.605,3a2.032,2.032,0,0,1-.223,1Zm0,0" fill="#fff"/>
    <path id="Path_13" data-name="Path 13" d="M477.141,228.3l-8.1-1.176-3.621-7.34a11.266,11.266,0,0,0-20.2,0l-3.621,7.34-8.1,1.176a11.264,11.264,0,0,0-6.242,19.215l5.859,5.711-1.383,8.066a11.265,11.265,0,0,0,16.344,11.875l7.242-3.809,7.242,3.809a11.265,11.265,0,0,0,16.344-11.875l-1.383-8.066,5.859-5.711a11.264,11.264,0,0,0-6.242-19.215Zm-11.512,15.551a11.275,11.275,0,0,0-3.238,9.969l.434,2.52-2.262-1.187a11.258,11.258,0,0,0-10.484,0l-2.262,1.187.43-2.52a11.254,11.254,0,0,0-3.238-9.969l-1.828-1.785,2.527-.367a11.271,11.271,0,0,0,8.484-6.16l1.129-2.293,1.133,2.293a11.258,11.258,0,0,0,8.48,6.16l2.527.367Zm0,0" fill="#fff"/>
  </g>
</svg>
